<?xml version="1.0" encoding="UTF-8"?><svg id="Layer_1" xmlns="http://www.w3.org/2000/svg" viewBox="0 0 41.62 41.62"><defs><style>.cls-1{fill:none;stroke:#000;stroke-miterlimit:10;stroke-width:4px;}.cls-2{stroke-width:0px;}</style></defs><circle class="cls-1" cx="20.81" cy="20.81" r="18.81"/><polyline class="cls-2" points="19.84 22.45 20.18 22.45 20.94 22.48 21.07 22.52 21.23 22.66 21.37 22.8 21.44 23.01 21.37 23.43 21.23 23.99 21.09 24.75 20.88 25.66 20.76 26.36 20.64 26.79 20.6 26.99 20.53 27.2 20.32 27.41 19.77 27.9 19.14 28.32 18.44 28.87 17.6 29.5 16.76 30.13 15.23 31.25 14.39 31.88 14.04 32.09 13.76 32.16 13.44 32.16 13.06 31.95 12.85 31.74 12.78 31.39 12.78 31.08 12.78 30.83 12.99 30.55 13.27 30.27 13.69 29.85 17.04 27.48 17.39 27.2 17.67 26.99 17.95 26.71 18.16 26.5 18.51 25.94 18.86 25.38 19.14 24.61 19.35 23.64 19.49 22.87 19.63 22.59 19.77 22.45"/><polygon class="cls-2" points="24.17 25.52 24.17 32.72 24.24 32.93 24.31 33.07 24.38 33.2 24.44 33.27 24.51 33.34 24.58 33.41 24.72 33.55 24.93 33.62 25.21 33.69 25.42 33.69 25.7 33.62 25.77 33.55 25.91 33.41 26.05 33.2 26.12 33 26.12 24.94 26.12 24.78 25.63 24.2 25 23.5 24.24 22.59 23.26 21.4 22.7 20.77 22.63 20.56 22.7 20.35 22.77 20.21 22.77 19.52 22.56 18.33 22.35 17.35 22.14 15.82 21.86 14.14 21.79 13.79 21.65 13.43 21.44 13.09 21.09 12.74 20.81 12.53 20.39 12.32 20.18 12.25 19.21 12.25 19 12.32 18.79 12.39 18.58 12.53 18.37 12.67 18.16 12.88 18.02 13.02 17.81 13.37 17.74 13.58 17.67 13.93 17.6 14.49 18.51 20.35 18.65 20.77 18.79 21.05 19 21.33 19.28 21.54 19.56 21.75 19.91 21.89 20.32 22.03 20.67 22.1 20.81 22.1 21.09 22.1 21.3 22.1 21.86 22.66 22.35 23.22 23.12 24.13 23.82 24.96 24.17 25.38 24.17 25.52"/><circle class="cls-2" cx="18.68" cy="9.56" r="2.27"/></svg>